<svg width="134" height="27" viewBox="0 0 134 27" fill="none" xmlns="http://www.w3.org/2000/svg">
<path d="M13.1 18.37V22H0.92V18.37H5.18V9.28C4.94 9.58 4.53 9.9 3.95 10.24C3.39 10.58 2.77 10.87 2.09 11.11C1.43 11.35 0.84 11.47 0.32 11.47V7.72C0.68 7.72 1.11 7.61 1.61 7.39C2.13 7.15 2.64 6.87 3.14 6.55C3.66 6.23 4.1 5.92 4.46 5.62C4.84 5.3 5.08 5.05 5.18 4.87H9.29V18.37H13.1ZM38.0413 14.89C38.0413 16.27 37.6913 17.52 36.9913 18.64C36.3113 19.76 35.3813 20.65 34.2013 21.31C33.0413 21.97 31.7213 22.3 30.2413 22.3C28.6413 22.3 27.2513 21.91 26.0713 21.13C24.8913 20.35 23.9813 19.23 23.3413 17.77C22.7213 16.31 22.4113 14.56 22.4113 12.52C22.4113 8.64 23.1513 5.68 24.6313 3.64C26.1313 1.58 28.1413 0.549999 30.6613 0.549999C32.0013 0.549999 33.2313 0.839999 34.3513 1.42C35.4913 2 36.4513 2.83 37.2313 3.91L34.9213 6.43C34.4413 5.69 33.8213 5.11 33.0613 4.69C32.3013 4.25 31.4813 4.03 30.6013 4.03C29.2613 4.03 28.1913 4.57 27.3913 5.65C26.5913 6.71 26.1713 8.2 26.1313 10.12C26.5513 9.4 27.1513 8.83 27.9313 8.41C28.7113 7.99 29.6013 7.78 30.6013 7.78C32.0013 7.78 33.2613 8.1 34.3813 8.74C35.5013 9.36 36.3913 10.21 37.0513 11.29C37.7113 12.35 38.0413 13.55 38.0413 14.89ZM30.2713 18.91C30.9713 18.91 31.6213 18.73 32.2213 18.37C32.8213 17.99 33.3013 17.5 33.6613 16.9C34.0213 16.28 34.2013 15.61 34.2013 14.89C34.2013 14.17 34.0213 13.52 33.6613 12.94C33.3013 12.34 32.8213 11.87 32.2213 11.53C31.6213 11.17 30.9713 10.99 30.2713 10.99C29.5513 10.99 28.8913 11.17 28.2913 11.53C27.6913 11.87 27.2113 12.34 26.8513 12.94C26.5113 13.52 26.3413 14.17 26.3413 14.89C26.3413 15.61 26.5213 16.28 26.8813 16.9C27.2413 17.5 27.7113 17.99 28.2913 18.37C28.8913 18.73 29.5513 18.91 30.2713 18.91ZM40.2139 12.28C40.2139 10.9 40.5539 9.65 41.2339 8.53C41.9139 7.41 42.8439 6.52 44.0239 5.86C45.2039 5.2 46.5239 4.87 47.9839 4.87C49.6039 4.87 50.9939 5.26 52.1539 6.04C53.3339 6.82 54.2439 7.94 54.8839 9.4C55.5239 10.86 55.8439 12.61 55.8439 14.65C55.8439 18.53 55.0939 21.49 53.5939 23.53C52.1139 25.59 50.1139 26.62 47.5939 26.62C46.2539 26.62 45.0139 26.33 43.8739 25.75C42.7339 25.17 41.7739 24.34 40.9939 23.26L43.3039 20.74C43.7839 21.48 44.4039 22.06 45.1639 22.48C45.9439 22.92 46.7739 23.14 47.6539 23.14C48.9939 23.14 50.0639 22.61 50.8639 21.55C51.6639 20.47 52.0739 18.97 52.0939 17.05C51.6939 17.77 51.0939 18.34 50.2939 18.76C49.5139 19.18 48.6239 19.39 47.6239 19.39C46.2239 19.39 44.9639 19.08 43.8439 18.46C42.7239 17.82 41.8339 16.97 41.1739 15.91C40.5339 14.83 40.2139 13.62 40.2139 12.28ZM47.9839 8.26C47.2639 8.26 46.6039 8.45 46.0039 8.83C45.4239 9.19 44.9539 9.68 44.5939 10.3C44.2339 10.9 44.0539 11.56 44.0539 12.28C44.0539 13 44.2239 13.66 44.5639 14.26C44.9239 14.84 45.4039 15.31 46.0039 15.67C46.6039 16.01 47.2639 16.18 47.9839 16.18C48.7039 16.18 49.3539 16.01 49.9339 15.67C50.5339 15.31 51.0139 14.84 51.3739 14.26C51.7339 13.66 51.9139 13 51.9139 12.28C51.9139 11.56 51.7339 10.9 51.3739 10.3C51.0139 9.68 50.5339 9.19 49.9339 8.83C49.3339 8.45 48.6839 8.26 47.9839 8.26ZM57.8799 12.28C57.8799 10.9 58.2199 9.65 58.8999 8.53C59.5799 7.41 60.5099 6.52 61.6899 5.86C62.8699 5.2 64.1899 4.87 65.6499 4.87C67.2699 4.87 68.6599 5.26 69.8199 6.04C70.9999 6.82 71.9099 7.94 72.5499 9.4C73.1899 10.86 73.5099 12.61 73.5099 14.65C73.5099 18.53 72.7599 21.49 71.2599 23.53C69.7799 25.59 67.7799 26.62 65.2599 26.62C63.9199 26.62 62.6799 26.33 61.5399 25.75C60.3999 25.17 59.4399 24.34 58.6599 23.26L60.9699 20.74C61.4499 21.48 62.0699 22.06 62.8299 22.48C63.6099 22.92 64.4399 23.14 65.3199 23.14C66.6599 23.14 67.7299 22.61 68.5299 21.55C69.3299 20.47 69.7399 18.97 69.7599 17.05C69.3599 17.77 68.7599 18.34 67.9599 18.76C67.1799 19.18 66.2899 19.39 65.2899 19.39C63.8899 19.39 62.6299 19.08 61.5099 18.46C60.3899 17.82 59.4999 16.97 58.8399 15.91C58.1999 14.83 57.8799 13.62 57.8799 12.28ZM65.6499 8.26C64.9299 8.26 64.2699 8.45 63.6699 8.83C63.0899 9.19 62.6199 9.68 62.2599 10.3C61.8999 10.9 61.7199 11.56 61.7199 12.28C61.7199 13 61.8899 13.66 62.2299 14.26C62.5899 14.84 63.0699 15.31 63.6699 15.67C64.2699 16.01 64.9299 16.18 65.6499 16.18C66.3699 16.18 67.0199 16.01 67.5999 15.67C68.1999 15.31 68.6799 14.84 69.0399 14.26C69.3999 13.66 69.5799 13 69.5799 12.28C69.5799 11.56 69.3999 10.9 69.0399 10.3C68.6799 9.68 68.1999 9.19 67.5999 8.83C66.9999 8.45 66.3499 8.26 65.6499 8.26ZM82.753 12.28C82.753 10.9 83.093 9.65 83.773 8.53C84.453 7.41 85.383 6.52 86.563 5.86C87.743 5.2 89.063 4.87 90.523 4.87C92.143 4.87 93.533 5.26 94.693 6.04C95.873 6.82 96.783 7.94 97.423 9.4C98.063 10.86 98.383 12.61 98.383 14.65C98.383 18.53 97.633 21.49 96.133 23.53C94.653 25.59 92.653 26.62 90.133 26.62C88.793 26.62 87.553 26.33 86.413 25.75C85.273 25.17 84.313 24.34 83.533 23.26L85.843 20.74C86.323 21.48 86.943 22.06 87.703 22.48C88.483 22.92 89.313 23.14 90.193 23.14C91.533 23.14 92.603 22.61 93.403 21.55C94.203 20.47 94.613 18.97 94.633 17.05C94.233 17.77 93.633 18.34 92.833 18.76C92.053 19.18 91.163 19.39 90.163 19.39C88.763 19.39 87.503 19.08 86.383 18.46C85.263 17.82 84.373 16.97 83.713 15.91C83.073 14.83 82.753 13.62 82.753 12.28ZM90.523 8.26C89.803 8.26 89.143 8.45 88.543 8.83C87.963 9.19 87.493 9.68 87.133 10.3C86.773 10.9 86.593 11.56 86.593 12.28C86.593 13 86.763 13.66 87.103 14.26C87.463 14.84 87.943 15.31 88.543 15.67C89.143 16.01 89.803 16.18 90.523 16.18C91.243 16.18 91.893 16.01 92.473 15.67C93.073 15.31 93.553 14.84 93.913 14.26C94.273 13.66 94.453 13 94.453 12.28C94.453 11.56 94.273 10.9 93.913 10.3C93.553 9.68 93.073 9.19 92.473 8.83C91.873 8.45 91.223 8.26 90.523 8.26ZM100.419 12.28C100.419 10.9 100.759 9.65 101.439 8.53C102.119 7.41 103.049 6.52 104.229 5.86C105.409 5.2 106.729 4.87 108.189 4.87C109.809 4.87 111.199 5.26 112.359 6.04C113.539 6.82 114.449 7.94 115.089 9.4C115.729 10.86 116.049 12.61 116.049 14.65C116.049 18.53 115.299 21.49 113.799 23.53C112.319 25.59 110.319 26.62 107.799 26.62C106.459 26.62 105.219 26.33 104.079 25.75C102.939 25.17 101.979 24.34 101.199 23.26L103.509 20.74C103.989 21.48 104.609 22.06 105.369 22.48C106.149 22.92 106.979 23.14 107.859 23.14C109.199 23.14 110.269 22.61 111.069 21.55C111.869 20.47 112.279 18.97 112.299 17.05C111.899 17.77 111.299 18.34 110.499 18.76C109.719 19.18 108.829 19.39 107.829 19.39C106.429 19.39 105.169 19.08 104.049 18.46C102.929 17.82 102.039 16.97 101.379 15.91C100.739 14.83 100.419 13.62 100.419 12.28ZM108.189 8.26C107.469 8.26 106.809 8.45 106.209 8.83C105.629 9.19 105.159 9.68 104.799 10.3C104.439 10.9 104.259 11.56 104.259 12.28C104.259 13 104.429 13.66 104.769 14.26C105.129 14.84 105.609 15.31 106.209 15.67C106.809 16.01 107.469 16.18 108.189 16.18C108.909 16.18 109.559 16.01 110.139 15.67C110.739 15.31 111.219 14.84 111.579 14.26C111.939 13.66 112.119 13 112.119 12.28C112.119 11.56 111.939 10.9 111.579 10.3C111.219 9.68 110.739 9.19 110.139 8.83C109.539 8.45 108.889 8.26 108.189 8.26ZM118.085 12.28C118.085 10.9 118.425 9.65 119.105 8.53C119.785 7.41 120.715 6.52 121.895 5.86C123.075 5.2 124.395 4.87 125.855 4.87C127.475 4.87 128.865 5.26 130.025 6.04C131.205 6.82 132.115 7.94 132.755 9.4C133.395 10.86 133.715 12.61 133.715 14.65C133.715 18.53 132.965 21.49 131.465 23.53C129.985 25.59 127.985 26.62 125.465 26.62C124.125 26.62 122.885 26.33 121.745 25.75C120.605 25.17 119.645 24.34 118.865 23.26L121.175 20.74C121.655 21.48 122.275 22.06 123.035 22.48C123.815 22.92 124.645 23.14 125.525 23.14C126.865 23.14 127.935 22.61 128.735 21.55C129.535 20.47 129.945 18.97 129.965 17.05C129.565 17.77 128.965 18.34 128.165 18.76C127.385 19.18 126.495 19.39 125.495 19.39C124.095 19.39 122.835 19.08 121.715 18.46C120.595 17.82 119.705 16.97 119.045 15.91C118.405 14.83 118.085 13.62 118.085 12.28ZM125.855 8.26C125.135 8.26 124.475 8.45 123.875 8.83C123.295 9.19 122.825 9.68 122.465 10.3C122.105 10.9 121.925 11.56 121.925 12.28C121.925 13 122.095 13.66 122.435 14.26C122.795 14.84 123.275 15.31 123.875 15.67C124.475 16.01 125.135 16.18 125.855 16.18C126.575 16.18 127.225 16.01 127.805 15.67C128.405 15.31 128.885 14.84 129.245 14.26C129.605 13.66 129.785 13 129.785 12.28C129.785 11.56 129.605 10.9 129.245 10.3C128.885 9.68 128.405 9.19 127.805 8.83C127.205 8.45 126.555 8.26 125.855 8.26Z" fill="#01384D"/>
</svg>
