<svg width="34" height="13" viewBox="0 0 34 13" fill="none" xmlns="http://www.w3.org/2000/svg">
<path d="M4.064 12.16C3.34933 12.16 2.66667 12.0427 2.016 11.808C1.36533 11.5733 0.805333 11.2267 0.336 10.768L1.104 9.376C1.60533 9.78133 2.096 10.08 2.576 10.272C3.056 10.464 3.52533 10.56 3.984 10.56C4.4 10.56 4.73067 10.4853 4.976 10.336C5.232 10.1867 5.36 9.96267 5.36 9.664C5.36 9.35467 5.20533 9.14667 4.896 9.04C4.58667 8.92267 4.15467 8.77867 3.6 8.608C2.98133 8.416 2.464 8.21867 2.048 8.016C1.632 7.81333 1.31733 7.568 1.104 7.28C0.901333 6.992 0.8 6.61867 0.8 6.16C0.8 5.33867 1.10933 4.68267 1.728 4.192C2.34667 3.70133 3.168 3.456 4.192 3.456C4.78933 3.456 5.35467 3.552 5.888 3.744C6.42133 3.92533 6.90667 4.224 7.344 4.64L6.48 6C5.65867 5.36 4.864 5.04 4.096 5.04C3.75467 5.04 3.45067 5.104 3.184 5.232C2.928 5.36 2.8 5.584 2.8 5.904C2.8 6.20267 2.92267 6.416 3.168 6.544C3.424 6.672 3.808 6.81067 4.32 6.96C4.98133 7.16267 5.54133 7.36 6 7.552C6.46933 7.744 6.82133 7.98933 7.056 8.288C7.30133 8.58667 7.424 8.992 7.424 9.504C7.424 10.336 7.12 10.9867 6.512 11.456C5.904 11.9253 5.088 12.16 4.064 12.16ZM12.7543 12.16C11.8369 12.16 11.0476 11.9627 10.3863 11.568C9.73558 11.1627 9.23425 10.6293 8.88225 9.968C8.53025 9.30667 8.35425 8.592 8.35425 7.824C8.35425 7.04533 8.53025 6.32533 8.88225 5.664C9.24492 5.00267 9.75158 4.47467 10.4023 4.08C11.0636 3.67467 11.8476 3.472 12.7543 3.472C13.6609 3.472 14.4396 3.67467 15.0903 4.08C15.7516 4.47467 16.2583 5.00267 16.6103 5.664C16.9623 6.32533 17.1383 7.04533 17.1383 7.824C17.1383 8.592 16.9623 9.30667 16.6103 9.968C16.2583 10.6293 15.7516 11.1627 15.0903 11.568C14.4396 11.9627 13.6609 12.16 12.7543 12.16ZM10.5623 7.824C10.5623 8.31467 10.6583 8.752 10.8503 9.136C11.0423 9.50933 11.3036 9.80267 11.6343 10.016C11.9649 10.2293 12.3383 10.336 12.7543 10.336C13.1596 10.336 13.5276 10.2293 13.8583 10.016C14.1889 9.792 14.4503 9.49333 14.6423 9.12C14.8449 8.736 14.9463 8.29867 14.9463 7.808C14.9463 7.328 14.8449 6.90133 14.6423 6.528C14.4503 6.144 14.1889 5.84533 13.8583 5.632C13.5276 5.408 13.1596 5.296 12.7543 5.296C12.3383 5.296 11.9649 5.408 11.6343 5.632C11.3036 5.84533 11.0423 6.144 10.8503 6.528C10.6583 6.90133 10.5623 7.33333 10.5623 7.824ZM17.5266 4.432L17.8946 2.48H17.2546V0.32H19.3986V2.512L18.8386 4.432H17.5266ZM33.2813 12H31.1373V7.296C31.1373 6.63467 31.0199 6.14933 30.7853 5.84C30.5613 5.52 30.2466 5.36 29.8413 5.36C29.4146 5.36 29.0146 5.52533 28.6413 5.856C28.2679 6.176 28.0013 6.59733 27.8413 7.12V12H25.6973V7.296C25.6973 6.624 25.5799 6.13333 25.3453 5.824C25.1213 5.51467 24.8066 5.36 24.4013 5.36C23.9853 5.36 23.5853 5.52 23.2013 5.84C22.8279 6.16 22.5613 6.58133 22.4013 7.104V12H20.2573V3.616H22.1933V5.168C22.5026 4.624 22.9239 4.208 23.4573 3.92C24.0013 3.62133 24.6199 3.472 25.3133 3.472C26.0066 3.472 26.5453 3.64267 26.9293 3.984C27.3239 4.32533 27.5746 4.74667 27.6813 5.248C28.0119 4.672 28.4439 4.23467 28.9773 3.936C29.5106 3.62667 30.1079 3.472 30.7693 3.472C31.2919 3.472 31.7133 3.568 32.0333 3.76C32.3639 3.94133 32.6199 4.192 32.8013 4.512C32.9826 4.82133 33.1053 5.17333 33.1693 5.568C33.2439 5.96267 33.2813 6.36267 33.2813 6.768V12Z" fill="#01384D"/>
</svg>
